# Alias OBJ Model File
# Exported from SketchUp, (c) 2000-2012 Trimble Navigation Limited
# File units = inches

mtllib 3dv2016.mtl

g Mesh1 Model

usemtl FrontColor
v 0 0 -0
vt 0 0
vn 0 -1 -0
v 0 0 -76.375
vt 0 76.375
v 72.25 0 -76.375
vt -72.25 76.375
v 72.25 0 -0
vt -72.25 0
f 1/1/1 2/2/1 3/3/1 4/4/1 

vt -76.375 0
vn -1 0 -0
v 0 12.3125 -0
vt 0 12.3125
v 0 12.3125 -76.375
vt -76.375 12.3125
f 2/5/2 1/1/2 5/6/2 6/7/2 

vn 0 0 1
vt 72.25 0
v 72.25 12.3125 -0
vt 72.25 12.3125
v 36.125 12.3125 -0
vt 36.125 12.3125
f 1/1/3 4/8/3 7/9/3 8/10/3 5/6/3 

vn 1 0 -0
vt 76.375 0
v 72.25 12.3125 -76.375
vt 76.375 12.3125
v 72.25 12.3125 -38.1875
vt 38.1875 12.3125
f 4/1/4 3/11/4 9/12/4 10/13/4 7/6/4 

vn 0 0 -1
v 36.125 12.3125 -76.375
vt -36.125 12.3125
vt -72.25 12.3125
f 3/4/5 2/1/5 6/6/5 11/14/5 9/15/5 

vn 0 1 -0
vt 36.125 0
v 36.125 12.3125 -38.1875
vt 36.125 38.1875
vt 36.125 76.375
f 5/1/6 8/16/6 12/17/6 11/18/6 6/2/6 

v 36.125 30.125 -38.1875
vt 36.125 47.3423
vn 0 0.906259 0.422723
v 36.125 47.9375 -76.375
vt 36.125 89.4798
v 0 47.9375 -76.375
vt 0 89.4798
vt 0 5.20478
vt 36.125 5.20478
f 13/19/7 14/20/7 15/21/7 5/22/7 8/23/7 

vt 76.375 47.9375
vt 38.1875 30.125
v 36.125 30.125 -76.375
vt 76.375 30.125
f 14/24/4 13/25/4 16/26/4

f 16/26/4 13/25/4 12/13/4 11/12/4 

vt 38.1875 -19.0779
vn 0.442241 0.896896 -0
vt 38.1875 -59.3557
vt 76.375 -59.3557
vt 76.375 -19.0779
f 13/27/8 10/28/8 9/29/8 16/30/8 

vt 36.125 30.125
f 12/10/3 10/9/3 13/31/3

vt 72.25 38.1875
vt 72.25 76.375
f 11/18/6 12/17/6 10/32/6 9/33/6 

f 7/8/6 10/32/6 12/17/6 8/16/6 

f 8/6/4 12/13/4 13/25/4

vt -36.125 30.125
f 16/34/5 9/15/5 11/14/5

vt 0 47.9375
vt -36.125 47.9375
f 15/35/5 14/36/5 16/34/5 11/14/5 6/6/5 

vt -76.375 47.9375
f 5/6/2 15/37/2 6/7/2

